<svg xmlns="http://www.w3.org/2000/svg" xmlns:xlink="http://www.w3.org/1999/xlink" width="700" height="700" viewBox="0 0 700 700"><defs><style>.cls-1,.cls-2,.cls-3,.cls-4,.cls-6,.cls-7,.cls-8{stroke:#000;stroke-miterlimit:10;}.cls-1{fill:url(#Безымянный_градиент_24);}.cls-3{fill:url(#Безымянный_градиент_27);}.cls-4{fill:url(#Безымянный_градиент_31);}.cls-5{fill:#ededed;}.cls-6{fill:url(#Безымянный_градиент_24-2);}.cls-7{fill:url(#Безымянный_градиент_27-2);}.cls-8{fill:url(#Безымянный_градиент_31-2);}.cls-9{fill:url(#Безымянный_градиент_99);}.cls-10{fill:#fff;}.cls-11{fill:url(#Безымянный_градиент_113);}.cls-12{fill:url(#Безымянный_градиент_81);}.cls-13{fill:url(#Безымянный_градиент_99-2);}.cls-14{fill:url(#Безымянный_градиент_113-2);}.cls-15{fill:url(#Безымянный_градиент_81-2);}.cls-16{fill:#3d3d3d;}.cls-17,.cls-18{fill:#333;}.cls-17{fill-rule:evenodd;}</style><radialGradient id="Безымянный_градиент_24" cx="50" cy="40" r="30" gradientUnits="userSpaceOnUse"><stop offset="0.67" stop-color="#fff"/><stop offset="1"/></radialGradient><radialGradient id="Безымянный_градиент_27" cx="49.91" cy="39.88" r="25.38" gradientUnits="userSpaceOnUse"><stop offset="0.4" stop-color="#fff"/><stop offset="1"/></radialGradient><radialGradient id="Безымянный_градиент_31" cx="49.86" cy="39.49" r="20.81" gradientUnits="userSpaceOnUse"><stop offset="0.03" stop-color="#444"/><stop offset="1"/></radialGradient><radialGradient id="Безымянный_градиент_24-2" cy="110" r="30" xlink:href="#Безымянный_градиент_24"/><radialGradient id="Безымянный_градиент_27-2" cx="49.91" cy="109.88" r="25.38" xlink:href="#Безымянный_градиент_27"/><radialGradient id="Безымянный_градиент_31-2" cx="49.86" cy="109.49" r="20.81" xlink:href="#Безымянный_градиент_31"/><radialGradient id="Безымянный_градиент_99" cx="125" cy="40" r="30" gradientUnits="userSpaceOnUse"><stop offset="0.54" stop-color="#ccc"/><stop offset="0.66" stop-color="#ccc"/><stop offset="0.81" stop-color="#cecece"/><stop offset="0.86" stop-color="#d5d5d5"/><stop offset="0.9" stop-color="#e0e0e0"/><stop offset="0.93" stop-color="#f1f1f1"/><stop offset="0.95" stop-color="#fff"/><stop offset="0.97" stop-color="#fff"/></radialGradient><radialGradient id="Безымянный_градиент_113" cx="125.31" cy="39.8" r="25.38" gradientUnits="userSpaceOnUse"><stop offset="0.29" stop-color="gray"/><stop offset="1" stop-color="#fff"/></radialGradient><radialGradient id="Безымянный_градиент_81" cx="125.38" cy="39.8" r="20.81" gradientUnits="userSpaceOnUse"><stop offset="0.1" stop-color="#f6f6f6"/><stop offset="0.5" stop-color="#fff"/><stop offset="1" stop-color="#ccc"/></radialGradient><radialGradient id="Безымянный_градиент_99-2" cy="110" r="30" xlink:href="#Безымянный_градиент_99"/><radialGradient id="Безымянный_градиент_113-2" cx="125.31" cy="109.8" r="25.38" xlink:href="#Безымянный_градиент_113"/><radialGradient id="Безымянный_градиент_81-2" cx="125.38" cy="109.8" r="20.81" xlink:href="#Безымянный_градиент_81"/></defs><title>sprite</title><g id="Слой_14" data-name="Слой 14"><circle class="cls-1" cx="50" cy="40" r="30"/><circle class="cls-2" cx="49.91" cy="39.83" r="27.03"/><circle class="cls-3" cx="49.91" cy="39.88" r="25.38"/><circle class="cls-4" cx="49.86" cy="39.49" r="20.81"/></g><g id="Слой_10" data-name="Слой 10"><path class="cls-5" d="M66.46,31.68a.87.87,0,0,0-1.05,0l-9,6.9L50.44,25.18a.91.91,0,0,0-1.6,0l-6,13.56-9-7.05a.87.87,0,0,0-1.35,1l6.23,16.09a.87.87,0,0,0,.81.56H59.71a.87.87,0,0,0,.81-.56l6.23-16.09A.87.87,0,0,0,66.46,31.68ZM59.12,47.6h-19L35.29,35l7.34,5.78A.88.88,0,0,0,44,40.47l5.66-12.79,5.58,12.62a.88.88,0,0,0,.58.49.87.87,0,0,0,.75-.15L64,35Zm1.38,4.08a.87.87,0,0,1-.87.87h-20a.87.87,0,0,1,0-1.75h20A.87.87,0,0,1,60.49,51.68Z"/></g><g id="Слой_13" data-name="Слой 13"><circle class="cls-6" cx="50" cy="110" r="30"/><circle class="cls-2" cx="49.91" cy="109.83" r="27.03"/><circle class="cls-7" cx="49.91" cy="109.88" r="25.38"/><circle class="cls-8" cx="49.86" cy="109.49" r="20.81"/><path class="cls-5" d="M66.88,101.94a.87.87,0,0,0-1.05,0l-9,6.9L50.85,95.44a.91.91,0,0,0-1.6,0l-6,13.56-9-7.05a.87.87,0,0,0-1.35,1L39.16,119a.87.87,0,0,0,.81.56H60.13a.87.87,0,0,0,.81-.56l6.23-16.09A.87.87,0,0,0,66.88,101.94Zm-7.35,15.91h-19l-4.86-12.56,7.34,5.78a.88.88,0,0,0,1.34-.33L50,97.94l5.58,12.62a.88.88,0,0,0,.58.49.87.87,0,0,0,.75-.15l7.46-5.7Zm1.38,4.08a.87.87,0,0,1-.87.87h-20a.87.87,0,0,1,0-1.75H60A.87.87,0,0,1,60.91,121.93Z"/></g><g id="Слой_6" data-name="Слой 6"><circle class="cls-9" cx="125" cy="40" r="30"/></g><g id="Слой_7" data-name="Слой 7"><circle class="cls-10" cx="125.26" cy="39.87" r="27.03"/></g><g id="Слой_8" data-name="Слой 8"><circle class="cls-11" cx="125.31" cy="39.8" r="25.38"/></g><g id="Слой_9" data-name="Слой 9"><circle class="cls-12" cx="125.38" cy="39.8" r="20.81"/></g><g id="Слой_12" data-name="Слой 12"><circle class="cls-13" cx="125" cy="110" r="30"/><circle class="cls-10" cx="125.26" cy="109.87" r="27.03"/><circle class="cls-14" cx="125.31" cy="109.8" r="25.38"/><circle class="cls-15" cx="125.38" cy="109.8" r="20.81"/><path class="cls-16" d="M142.23,101.86a.87.87,0,0,0-1.05,0l-9,6.9L126.2,95.36a.91.91,0,0,0-1.6,0l-6,13.56-9-7.05a.87.87,0,0,0-1.35,1L114.51,119a.87.87,0,0,0,.81.56h20.16a.87.87,0,0,0,.81-.56l6.23-16.09A.87.87,0,0,0,142.23,101.86Zm-7.35,15.91h-19l-4.86-12.56L118.4,111a.88.88,0,0,0,1.34-.33l5.66-12.79L131,110.49a.88.88,0,0,0,.58.49.87.87,0,0,0,.75-.15l7.46-5.7Zm1.38,4.08a.87.87,0,0,1-.87.87h-20a.87.87,0,0,1,0-1.75h20A.87.87,0,0,1,136.26,121.86Z"/></g><g id="Слой_16" data-name="Слой 16"><path class="cls-17" d="M253.22,52.33c17.51-5.13,36.05-4.82,55.45,0v9.23c-21.4-5.27-34.92-5.6-55.45,0V52.33ZM304.46,56a1.23,1.23,0,1,1-1.27,1.23A1.25,1.25,0,0,1,304.46,56Zm-45.11,0a1.23,1.23,0,1,1-1.27,1.23A1.25,1.25,0,0,1,259.35,56Zm9.63-3a1.92,1.92,0,1,1-2,1.92,1.95,1.95,0,0,1,2-1.92Zm25.85,0a1.92,1.92,0,1,1-2,1.92,1.95,1.95,0,0,1,2-1.92Zm-13.58-2a2.51,2.51,0,1,1-2.59,2.51A2.55,2.55,0,0,1,281.25,51Zm15.09-30.67c-4.05,1.9-7.6,3.85-10.42,3.8a4.08,4.08,0,0,0,0-.62,4.71,4.71,0,0,0-9.42,0,4.3,4.3,0,0,0,0,.6c-2.88.25-6.57-1.79-10.81-3.78-10.28-4.83-16,4.61-10.68,9.46a29.29,29.29,0,0,1,4.7,5.41c1.94,2.76,5-.6,2.13-3.33-5.12-4.79-2.06-11,4.14-7.85a24.27,24.27,0,0,0,12,2.85,5.11,5.11,0,0,0,.77.56v7.8c1.75-1.25,3.06-1.31,5,0V27.28a4.73,4.73,0,0,0,.62-.47A24.12,24.12,0,0,0,296,24c6.19-3.14,9.26,3.06,4.14,7.85-2.9,2.72.19,6.09,2.13,3.33A29.54,29.54,0,0,1,307,29.74c5.36-4.85-.4-14.29-10.68-9.46Zm27.83,10.94c-1-5.94-5.85-8.13-13.07-8.39.9,2,1.45,4-.42,6,10.22-.84,10.23,5.21,4.62,9.68-2.26,1.79-.11,4.61,1.59,2.86,3.53-3.65,7.78-7.16,7.28-10.17Zm-86.32,0c1-5.94,5.85-8.13,13.08-8.39-.9,2-1.45,4,.42,6-10.23-.84-10.24,5.21-4.62,9.68,2.26,1.79.11,4.61-1.59,2.86-3.53-3.65-7.78-7.16-7.28-10.17Zm73.62,14.51a1.92,1.92,0,0,1,.51.16,1.9,1.9,0,0,1-.84-1.9,2,2,0,0,1,2.28-1.57A1.93,1.93,0,0,1,315,44.63a2,2,0,0,1-2.28,1.57,2,2,0,0,1-.51-.16,1.89,1.89,0,0,1,.83,1.9,2,2,0,0,1-2.28,1.57,1.93,1.93,0,0,1-1.62-2.21,2,2,0,0,1,2.28-1.57Zm-60.6.22a1.91,1.91,0,0,0-.51.16,1.9,1.9,0,0,0,.84-1.9,2,2,0,0,0-2.28-1.57,1.92,1.92,0,0,0-1.62,2.21,2,2,0,0,0,2.27,1.57,2.14,2.14,0,0,0,.51-.15,1.89,1.89,0,0,0-.84,1.9,2,2,0,0,0,2.28,1.57,1.93,1.93,0,0,0,1.62-2.21,2,2,0,0,0-2.28-1.57Zm9.53-4.34a2.33,2.33,0,0,0-2,2.67,2.4,2.4,0,0,0,2.76,1.9,2.33,2.33,0,0,0,2-2.68,2.26,2.26,0,0,0-.26-.73,2.38,2.38,0,0,0,.6,0,2.41,2.41,0,0,0,.58-.17,2.17,2.17,0,0,0,0,.77,2.39,2.39,0,0,0,2.76,1.9,2.33,2.33,0,0,0,2-2.67,2.39,2.39,0,0,0-2.76-1.9,2.62,2.62,0,0,0-.57.17,2.27,2.27,0,0,0,0-.77,2.4,2.4,0,0,0-2.76-1.9,2.33,2.33,0,0,0-2,2.67,2.24,2.24,0,0,0,.26.73,2.65,2.65,0,0,0-.6,0Zm35.87-.92a2.61,2.61,0,0,1,.58.17,2.17,2.17,0,0,1,0-.77,2.39,2.39,0,0,1,2.76-1.9,2.33,2.33,0,0,1,2,2.67,2.21,2.21,0,0,1-.27.73,2.66,2.66,0,0,1,.6,0,2.33,2.33,0,0,1,2,2.67,2.39,2.39,0,0,1-2.76,1.9,2.3,2.3,0,0,1-1.7-3.41,2.44,2.44,0,0,1-1.17-.19,2.24,2.24,0,0,1,0,.77,2.39,2.39,0,0,1-2.76,1.9,2.33,2.33,0,0,1-2-2.67,2.39,2.39,0,0,1,2.76-1.9ZM284.59,39a2.8,2.8,0,1,1-2.89,2.8,2.11,2.11,0,0,1,0-.28,3.19,3.19,0,0,1-.47,0,3,3,0,0,1-.68-.08,2.75,2.75,0,0,1,0,.32A2.89,2.89,0,1,1,277.7,39a2.93,2.93,0,0,1,.68.08c0-.11,0-.21,0-.32a2.89,2.89,0,0,1,5.78,0c0,.09,0,.19,0,.28a3,3,0,0,1,.47,0Zm2.68-24.58A2.25,2.25,0,1,1,285,16.63a2.28,2.28,0,0,1,2.32-2.24Zm-13.17,0a2.24,2.24,0,1,1-2.31,2.24,2.29,2.29,0,0,1,2.31-2.24Zm7.14-4.33a2.8,2.8,0,1,1-2.89,2.8,2.85,2.85,0,0,1,2.89-2.8Z"/><path class="cls-18" d="M232.36,99.67a71.82,71.82,0,0,1-4.77,8.43,28.42,28.42,0,0,1-7,6.82,29.74,29.74,0,0,1-17.38,5.65A28.18,28.18,0,0,1,192,118.23q-12.54-5.35-12.54-20.68a40.6,40.6,0,0,1,2.46-13.46,39.86,39.86,0,0,1,6.49-12,37.13,37.13,0,0,1-1.17-9.46,29,29,0,0,1,.88-7.33q.29-1,1-1t.44,1.39a26,26,0,0,0-.37,4.69,50.26,50.26,0,0,0,1,9.24Q200.82,56,216.81,56q11,0,16.65,5.57a13.05,13.05,0,0,1,4,9.68q0,8.73-7.7,14.38a26.51,26.51,0,0,1-16,5.06,36.15,36.15,0,0,1-5.13-.37q-13.13-1.91-18.19-12.47-1.69,2.2-3.67,8.36a46.42,46.42,0,0,0-2.49,14.23q0,13.28,10.56,16.43a29.37,29.37,0,0,0,8.51,1.17,31.2,31.2,0,0,0,16.06-4.25,24.9,24.9,0,0,0,7.26-6.45,58.46,58.46,0,0,0,4.77-8.36q.37-.73.81-.73t.37.59A2.26,2.26,0,0,1,232.36,99.67ZM218.28,58.75a26.65,26.65,0,0,0-15.18,5,42.81,42.81,0,0,0-11.15,11.73q4.47,11.59,17.82,13.06a34.08,34.08,0,0,0,3.59.15,23.88,23.88,0,0,0,14.15-4.25,14.79,14.79,0,0,0,6.67-12.61A11.76,11.76,0,0,0,231,63.59Q226.57,58.75,218.28,58.75Z"/><path class="cls-18" d="M256.64,99.66q-6.38,13.65-11.81,13.65-4.62,0-4.62-4.75,0-3.87,4.77-11.47a4,4,0,0,0,.73-2q0-1.24-1.47-.73a14.83,14.83,0,0,0-4.47,3.15q-5.43,5.06-10.27,14.52a2.54,2.54,0,0,1-2.35,1.17,8.37,8.37,0,0,0-2.86.37l9.61-19.88q5-10.19,10.56-20.54,2.64-4.84,5.21-4.62a10.88,10.88,0,0,1,1.54.22,3.39,3.39,0,0,0,1.54.07q-2.34,2.5-8.35,13.43Q239.54,91,234,102.38a41.5,41.5,0,0,1,12.41-11Q250.69,89,252.75,89a3.16,3.16,0,0,1,.73.07q-3.89,7.07-5.06,9.4a42,42,0,0,0-3.74,9.4,10.7,10.7,0,0,0-.22,1.89q0,1.89,1.32,2,3.45.29,9.9-12.77.37-.73.81-.73c.24,0,.37.17.37.51A2.08,2.08,0,0,1,256.64,99.66Z"/><path class="cls-18" d="M274.9,99.37a53.91,53.91,0,0,1-5,9.12q-3.74,4.82-9,4.82a6.74,6.74,0,0,1-5-2,7.15,7.15,0,0,1-2-5q-.07-6.8,5.65-13.68Q264.19,87,269.18,87q4.11,0,4.11,3.5,0,4-5.31,8a17.65,17.65,0,0,1-4.38,2.15,14.58,14.58,0,0,1-4.68,1.06,14,14,0,0,0-1,5.25q0,4.74,3.46,4.74,6.7,0,12.15-12.41c.29-.68.69-1,1.18-1,.25,0,.37.15.37.44A2.36,2.36,0,0,1,274.9,99.37Zm-3.59-9.16q0-1.61-1.17-1.61-2.05,0-6.23,5.06a42.26,42.26,0,0,0-4.4,6.89q3.81,0,7.81-3.3T271.3,90.21Z"/><path class="cls-18" d="M293.6,99.66a38.29,38.29,0,0,1-5.43,9.49,11,11,0,0,1-8.58,4.16q-7.26,0-7.26-7.29a20.72,20.72,0,0,1,4.25-12.11q4.62-6.56,10.56-6.56,5.65,0,5.06,5.06a5.6,5.6,0,0,1-1.32,2.86,3.26,3.26,0,0,1-2.49,1.47,1.49,1.49,0,0,1-1.1-.44,7.74,7.74,0,0,0,2.49-5.43q0-1.91-1.7-1.91-3.84,0-8,7.29-3.83,6.78-3.69,10.93.22,4.81,4.05,4.81,5.67,0,12.15-12.84.37-.8.88-.8.29,0,.29.51A2.2,2.2,0,0,1,293.6,99.66Z"/><path class="cls-18" d="M319.27,99.45q-6.16,14.16-13.28,14.15-5.94,0-7-6.31a11.32,11.32,0,0,1-.15-2q0-4.77,3.59-6.45a9.57,9.57,0,0,0,3.7-.59,11.93,11.93,0,0,0,3.48-1.61q2.13-1.69,2.13-3.45,0-2-2.42-1.83-2.79.22-6.75,3.59a34.28,34.28,0,0,0-8.43,10.56q-.22.44-2.93,6.53a2.36,2.36,0,0,1-2.27,1.17,11.85,11.85,0,0,0-2.93.37q10.19-21.93,20.17-40.41,2.64-4.84,5.21-4.62a9.48,9.48,0,0,1,1.47.22,3.74,3.74,0,0,0,1.61.07q-5.21,5.43-17.31,30.36,6.82-8.58,12.32-10.71a11.23,11.23,0,0,1,4-.88q3.23,0,3.23,2.86,0,4.25-4.6,7a19.57,19.57,0,0,1-8.32,2.57,11.59,11.59,0,0,0-.8,4.25,9.64,9.64,0,0,0,1.1,4.62,4,4,0,0,0,3.65,2.57q2.19,0,4.67-2.64,2.19-2.35,6.13-10,.29-.59.58-.59Q319.78,98.2,319.27,99.45Z"/><path class="cls-18" d="M337.31,99.37a53.9,53.9,0,0,1-5,9.12q-3.74,4.82-9,4.82a6.74,6.74,0,0,1-5-2,7.14,7.14,0,0,1-2-5q-.07-6.8,5.65-13.68Q326.6,87,331.59,87q4.11,0,4.11,3.5,0,4-5.31,8a17.67,17.67,0,0,1-4.39,2.15,14.58,14.58,0,0,1-4.68,1.06,14,14,0,0,0-1,5.25q0,4.74,3.46,4.74,6.7,0,12.15-12.41.44-1,1.18-1c.25,0,.37.15.37.44A2.34,2.34,0,0,1,337.31,99.37Zm-3.59-9.16q0-1.61-1.17-1.61-2.05,0-6.23,5.06a42.26,42.26,0,0,0-4.4,6.89q3.81,0,7.81-3.3T333.72,90.21Z"/><path class="cls-18" d="M356.23,99.67q-6.68,13.42-11.44,13.42a3.66,3.66,0,0,1-3.08-1.43,5.54,5.54,0,0,1-1.1-3.48,12.56,12.56,0,0,1,1-4.4,40.47,40.47,0,0,1,2.2-4.33q1.76-3,2.35-4.33a3,3,0,0,0,.22-1q0-2.27-5.87-2.42L339.58,94q-4.48,12-8.87,16.21a.7.7,0,0,1-.37.15c-.2,0-.32-.12-.37-.37a1,1,0,0,1,.15-.73,57.75,57.75,0,0,0,7.41-14.16,74.38,74.38,0,0,0,3.89-12.76q.37-2.27,2-2.27a2.17,2.17,0,0,1,1.94,1.14,4.63,4.63,0,0,1,.7,2.46q0,3.37-4.18,6.23A72,72,0,0,0,352,89.62a1.2,1.2,0,0,1,.15.66,13,13,0,0,1-1.69,5q-5.58,11.07-5.57,14.08,0,1.76,1.39,1.83,3.08.07,9.09-12.25.37-.73.81-.73t.37.59A2.25,2.25,0,0,1,356.23,99.67Z"/><path class="cls-18" d="M374.71,100.19q-1.39,3-3.23,6.16-3.81,6.67-9.17,6.67a9.31,9.31,0,0,1-2.49-.37,7.6,7.6,0,0,1-3,.66,7.29,7.29,0,0,1-4.69-1.46,5.11,5.11,0,0,1-1.83-4.24,6.27,6.27,0,0,1,.66-2.85,2.62,2.62,0,0,1,2.2-1.76q2.64-5.41,5.21-10.83,4.18-7.68,7.19-8.12a5.31,5.31,0,0,1,2.13.15q1.47.37,1.47,1.25c0,.29-.17.44-.51.44a6.1,6.1,0,0,1-1.32-.44,2.5,2.5,0,0,0-1.69.15q-2.49,1.17-2.49,4.84a12.7,12.7,0,0,0,1,4.47q.88,2.05,1.76,4.18a11.21,11.21,0,0,1,.88,4.47q-.22,4.77-5.21,8.14l.51.07q3.08.44,6.6-3.37,1.17-1.25,5.5-9.61a.62.62,0,0,1,.51-.37.45.45,0,0,1,.51.51A5.26,5.26,0,0,1,374.71,100.19Zm-16.94,11.59a6.35,6.35,0,0,1-2.93-5.43,4,4,0,0,0-1.32,2.9q0,2.82,2.79,2.82A4,4,0,0,0,357.77,111.78Zm4.47-8.22a41.34,41.34,0,0,0-.44-6.23,47,47,0,0,1-.66-6.23V89.62Q357,98.2,354.4,103.19q1.69.07,1.54,2.35a5.4,5.4,0,0,0,3.08,5.65Q362,108.91,362.25,103.56Z"/></g></svg>