<svg xmlns="http://www.w3.org/2000/svg" width="1000" height="1000" viewBox="0 0 1000 1000"><defs><style>.cls-1{fill:#151616;}.cls-2{fill:#fff;}</style></defs><title>sprite</title><g id="Logo"><path class="cls-1" d="M60.53,20.23a32,32,0,1,0,32,32A32,32,0,0,0,60.53,20.23Zm0,59.86A27.82,27.82,0,1,1,88.35,52.27,27.82,27.82,0,0,1,60.53,80.09Z"/><polygon class="cls-1" points="53.5 43.16 49.36 43.16 45.94 50.23 44.16 50.23 44.16 43.16 40.34 43.16 40.34 61.28 44.16 61.28 44.16 53.96 45.86 53.96 49.52 61.28 53.5 61.28 49.05 51.77 53.5 43.16"/><path class="cls-1" d="M63.8,61.28h3.9L65.91,43.16H56.59L54.91,61.28H58.7L59.08,57h4.31ZM63,53.22H59.4L59.95,47h2.49Z"/><path class="cls-1" d="M78.1,61.28H82L80.21,43.16H70.89L69.21,61.28H73L73.38,57h4.31Zm-.76-8.06H73.71L74.25,47h2.49Z"/><polygon class="cls-1" points="106.24 64.2 106.24 77.13 99.98 64.2 95.35 64.2 95.35 86.23 99.98 86.23 99.98 73.22 106.24 86.23 110.88 86.23 110.88 64.2 106.24 64.2"/><polygon class="cls-1" points="114.94 64.2 114.94 86.23 129.24 86.23 129.24 81.43 119.49 81.42 119.49 77.6 124.61 77.61 124.61 72.9 119.49 72.9 119.49 68.92 129.24 68.92 129.24 64.2 114.94 64.2"/><path class="cls-1" d="M104.52,60.61s-.49,0-.64-.06a.26.26,0,0,1-.2-.22s0-3.79,0-4.56c0-.29-.23-.42-.52-.63a1.74,1.74,0,0,0-.78-.19,1.56,1.56,0,0,0-.64.23,3,3,0,0,0-.59,1,30.91,30.91,0,0,0-.94,3.2V55.69a1.07,1.07,0,0,0-.42-.56,1.12,1.12,0,0,0-1.46.06A3.83,3.83,0,0,0,98,56c-.3.9-1,3.73-1,3.74L96.82,55H95.54l.16,5.89H97a43.06,43.06,0,0,1,1.48-5.28.33.33,0,0,1,.41-.1.39.39,0,0,1,.09.16v5.22h1.26s.84-3.14,1.11-4.08a2.15,2.15,0,0,1,.73-1.28.35.35,0,0,1,.29,0,.38.38,0,0,1,.13.18s-.05,3.22,0,4.38a.87.87,0,0,0,.75.81h1.44v-.3Z"/><path class="cls-1" d="M110.35,55.35a.86.86,0,0,0-.65-.33,1.12,1.12,0,0,0-.85.33c-.78.89-1.61,4.45-1.61,4.45s-.09-.34-.11-.46a8.33,8.33,0,0,1,0-1.29h0s.32-1.19.44-1.56c.26-.83.85-2.46,1.1-3.29.2-.68.57-2.05.7-2.75s.29-1.86.34-2.41a6.3,6.3,0,0,0,0-1.33,1,1,0,0,0-.45-.81,1.8,1.8,0,0,0-2.37.18,1.87,1.87,0,0,0-.65,1.29c-.16,3-.32,9.26-.19,12.39a1.31,1.31,0,0,0,.29.65,1.75,1.75,0,0,0,.86.49s1.62.06,2.15,0a1,1,0,0,0,.51-.23,1.79,1.79,0,0,0,.57-.8,28.31,28.31,0,0,0,0-3.88A2.07,2.07,0,0,0,110.35,55.35Zm-2.49-9.11c.08-.12.5-.66,1.26.05.22.21.22.91.19,1.22-.06.63-.33,2.53-.33,2.53s-.58,2.7-.83,3.58-1,3-1,3.05l.35-9.46A6.33,6.33,0,0,1,107.86,46.24ZM109.22,60a1.41,1.41,0,0,1-.12.37.9.9,0,0,1-.46.32,1.69,1.69,0,0,1-1-.07c-.07,0-.12-.21-.12-.28a2.35,2.35,0,0,1,.06-.33s.84-3.48,1.62-4.37c0-.05.12,0,.15.26C109.37,56.57,109.28,59.16,109.22,60Z"/><path class="cls-1" d="M114,60.55a.46.46,0,0,1-.38-.24.77.77,0,0,1-.11-.26,9.41,9.41,0,0,1,0-1.1,1.87,1.87,0,0,0,.83-.08,3.08,3.08,0,0,0,1-.48,2.31,2.31,0,0,0,.74-1.12,2.45,2.45,0,0,0,0-1.08,1.77,1.77,0,0,0-.43-.82,1.55,1.55,0,0,0-.55-.33,6.92,6.92,0,0,0-1.2,0,2.38,2.38,0,0,0-.7.2,1.84,1.84,0,0,0-.54.51,1.7,1.7,0,0,0-.2.68c-.07.86,0,3.45,0,3.45a1.3,1.3,0,0,0,.37.75,1.34,1.34,0,0,0,.73.3H116v-.37Zm-.49-4.14a2.78,2.78,0,0,1,.12-.67,1,1,0,0,1,.41-.38,1.39,1.39,0,0,1,.71,0,1.12,1.12,0,0,1,.41.32,1.92,1.92,0,0,1,.16.62,3.24,3.24,0,0,1,0,.88,2.26,2.26,0,0,1-.2.54,2,2,0,0,1-.67.74,1.81,1.81,0,0,1-.74.23h-.15V56.4Z"/><path class="cls-1" d="M117.77,55h4.5v.2l-3.78,4.88h3.33a.52.52,0,0,1,.25.4c0,.26-.33.41-.33.41h-4.41v-.32L121,55.79h-3.12s-.35-.16-.35-.44S117.77,55,117.77,55Z"/></g><g id="Слой_3" data-name="Слой 3"><path class="cls-2" d="M60.53,101.77a32,32,0,1,0,32,32A32,32,0,0,0,60.53,101.77Zm0,59.86a27.82,27.82,0,1,1,27.82-27.82A27.82,27.82,0,0,1,60.53,161.64Z"/><polygon class="cls-2" points="53.5 124.7 49.36 124.7 45.94 131.77 44.16 131.77 44.16 124.7 40.34 124.7 40.34 142.83 44.16 142.83 44.16 135.51 45.86 135.51 49.52 142.83 53.5 142.83 49.05 133.32 53.5 124.7"/><path class="cls-2" d="M63.8,142.83h3.9L65.91,124.7H56.59l-1.68,18.12H58.7l.37-4.29h4.31ZM63,134.76H59.4l.54-6.24h2.49Z"/><path class="cls-2" d="M78.1,142.83H82L80.21,124.7H70.89l-1.68,18.12H73l.37-4.29h4.31Zm-.76-8.06H73.71l.54-6.24h2.49Z"/><polygon class="cls-2" points="106.24 145.75 106.24 158.67 99.98 145.75 95.35 145.75 95.35 167.77 99.98 167.77 99.98 154.77 106.24 167.77 110.88 167.77 110.88 145.75 106.24 145.75"/><polygon class="cls-2" points="114.94 145.75 114.94 167.77 129.24 167.77 129.24 162.98 119.49 162.97 119.49 159.15 124.61 159.16 124.61 154.45 119.49 154.45 119.49 150.46 129.24 150.46 129.24 145.75 114.94 145.75"/><path class="cls-2" d="M104.52,142.16s-.49,0-.64-.06a.26.26,0,0,1-.2-.22s0-3.79,0-4.56c0-.29-.23-.42-.52-.63a1.74,1.74,0,0,0-.78-.19,1.56,1.56,0,0,0-.64.23,3,3,0,0,0-.59,1,30.91,30.91,0,0,0-.94,3.2v-3.71a1.07,1.07,0,0,0-.42-.56,1.12,1.12,0,0,0-1.46.06,3.83,3.83,0,0,0-.35.78c-.3.9-1,3.73-1,3.74l-.13-4.69H95.54l.16,5.89H97a43.06,43.06,0,0,1,1.48-5.28.33.33,0,0,1,.41-.1.39.39,0,0,1,.09.16v5.22h1.26s.84-3.14,1.11-4.08a2.15,2.15,0,0,1,.73-1.28.35.35,0,0,1,.29,0,.38.38,0,0,1,.13.18s-.05,3.22,0,4.38a.87.87,0,0,0,.75.81h1.44v-.3Z"/><path class="cls-2" d="M110.35,136.9a.86.86,0,0,0-.65-.33,1.12,1.12,0,0,0-.85.33c-.78.89-1.61,4.45-1.61,4.45s-.09-.34-.11-.46a8.33,8.33,0,0,1,0-1.29h0s.32-1.19.44-1.56c.26-.83.85-2.46,1.1-3.29.2-.68.57-2.05.7-2.75s.29-1.86.34-2.41a6.3,6.3,0,0,0,0-1.33,1,1,0,0,0-.45-.81,1.8,1.8,0,0,0-2.37.18,1.87,1.87,0,0,0-.65,1.29c-.16,3-.32,9.26-.19,12.39a1.31,1.31,0,0,0,.29.65,1.75,1.75,0,0,0,.86.49s1.62.06,2.15,0a1,1,0,0,0,.51-.23,1.79,1.79,0,0,0,.57-.8,28.31,28.31,0,0,0,0-3.88A2.07,2.07,0,0,0,110.35,136.9Zm-2.49-9.11c.08-.12.5-.66,1.26.05.22.21.22.91.19,1.22-.06.63-.33,2.53-.33,2.53s-.58,2.7-.83,3.58-1,3-1,3.05l.35-9.46A6.33,6.33,0,0,1,107.86,127.79Zm1.36,13.8a1.41,1.41,0,0,1-.12.37.9.9,0,0,1-.46.32,1.69,1.69,0,0,1-1-.07c-.07,0-.12-.21-.12-.28a2.35,2.35,0,0,1,.06-.33s.84-3.48,1.62-4.37c0-.05.12,0,.15.26C109.37,138.12,109.28,140.71,109.22,141.59Z"/><path class="cls-2" d="M114,142.09a.46.46,0,0,1-.38-.24.77.77,0,0,1-.11-.26,9.41,9.41,0,0,1,0-1.1,1.87,1.87,0,0,0,.83-.08,3.08,3.08,0,0,0,1-.48,2.31,2.31,0,0,0,.74-1.12,2.45,2.45,0,0,0,0-1.08,1.77,1.77,0,0,0-.43-.82,1.55,1.55,0,0,0-.55-.33,6.92,6.92,0,0,0-1.2,0,2.38,2.38,0,0,0-.7.2,1.84,1.84,0,0,0-.54.51,1.7,1.7,0,0,0-.2.68c-.07.86,0,3.45,0,3.45a1.3,1.3,0,0,0,.37.75,1.34,1.34,0,0,0,.73.3h2.54v-.37Zm-.49-4.14a2.78,2.78,0,0,1,.12-.67,1,1,0,0,1,.41-.38,1.39,1.39,0,0,1,.71,0,1.12,1.12,0,0,1,.41.32,1.92,1.92,0,0,1,.16.62,3.24,3.24,0,0,1,0,.88,2.26,2.26,0,0,1-.2.54,2,2,0,0,1-.67.74,1.81,1.81,0,0,1-.74.23h-.15v-2.28Z"/><path class="cls-2" d="M117.77,136.57h4.5v.2l-3.78,4.88h3.33a.52.52,0,0,1,.25.4c0,.26-.33.41-.33.41h-4.41v-.32l3.62-4.79h-3.12s-.35-.16-.35-.44S117.77,136.57,117.77,136.57Z"/></g></svg>