<svg xmlns="http://www.w3.org/2000/svg" xmlns:xlink="http://www.w3.org/1999/xlink" width="700" height="700" viewBox="0 0 700 700"><defs><style>.cls-1,.cls-2,.cls-3,.cls-4,.cls-6,.cls-7,.cls-8{stroke:#000;stroke-miterlimit:10;}.cls-1{fill:url(#Безымянный_градиент_24);}.cls-3{fill:url(#Безымянный_градиент_27);}.cls-4{fill:url(#Безымянный_градиент_31);}.cls-5{fill:#ededed;}.cls-6{fill:url(#Безымянный_градиент_24-2);}.cls-7{fill:url(#Безымянный_градиент_27-2);}.cls-8{fill:url(#Безымянный_градиент_31-2);}.cls-9{fill:url(#Безымянный_градиент_99);}.cls-10{fill:#fff;}.cls-11{fill:url(#Безымянный_градиент_113);}.cls-12{fill:url(#Безымянный_градиент_81);}.cls-13{fill:url(#Безымянный_градиент_99-2);}.cls-14{fill:url(#Безымянный_градиент_113-2);}.cls-15{fill:url(#Безымянный_градиент_81-2);}.cls-16{fill:#3d3d3d;}.cls-17,.cls-18{fill:#333;}.cls-17{fill-rule:evenodd;}.cls-18{font-size:73.34px;font-family:GoodVibrationsScript, GoodVibrations;}</style><radialGradient id="Безымянный_градиент_24" cx="50" cy="40" r="30" gradientUnits="userSpaceOnUse"><stop offset="0.67" stop-color="#fff"/><stop offset="1"/></radialGradient><radialGradient id="Безымянный_градиент_27" cx="49.91" cy="39.88" r="25.38" gradientUnits="userSpaceOnUse"><stop offset="0.4" stop-color="#fff"/><stop offset="1"/></radialGradient><radialGradient id="Безымянный_градиент_31" cx="49.86" cy="39.49" r="20.81" gradientUnits="userSpaceOnUse"><stop offset="0.03" stop-color="#444"/><stop offset="1"/></radialGradient><radialGradient id="Безымянный_градиент_24-2" cy="110" r="30" xlink:href="#Безымянный_градиент_24"/><radialGradient id="Безымянный_градиент_27-2" cx="49.91" cy="109.88" r="25.38" xlink:href="#Безымянный_градиент_27"/><radialGradient id="Безымянный_градиент_31-2" cx="49.86" cy="109.49" r="20.81" xlink:href="#Безымянный_градиент_31"/><radialGradient id="Безымянный_градиент_99" cx="125" cy="40" r="30" gradientUnits="userSpaceOnUse"><stop offset="0.54" stop-color="#ccc"/><stop offset="0.66" stop-color="#ccc"/><stop offset="0.81" stop-color="#cecece"/><stop offset="0.86" stop-color="#d5d5d5"/><stop offset="0.9" stop-color="#e0e0e0"/><stop offset="0.93" stop-color="#f1f1f1"/><stop offset="0.95" stop-color="#fff"/><stop offset="0.97" stop-color="#fff"/></radialGradient><radialGradient id="Безымянный_градиент_113" cx="125.31" cy="39.8" r="25.38" gradientUnits="userSpaceOnUse"><stop offset="0.29" stop-color="gray"/><stop offset="1" stop-color="#fff"/></radialGradient><radialGradient id="Безымянный_градиент_81" cx="125.38" cy="39.8" r="20.81" gradientUnits="userSpaceOnUse"><stop offset="0.1" stop-color="#f6f6f6"/><stop offset="0.5" stop-color="#fff"/><stop offset="1" stop-color="#ccc"/></radialGradient><radialGradient id="Безымянный_градиент_99-2" cy="110" r="30" xlink:href="#Безымянный_градиент_99"/><radialGradient id="Безымянный_градиент_113-2" cx="125.31" cy="109.8" r="25.38" xlink:href="#Безымянный_градиент_113"/><radialGradient id="Безымянный_градиент_81-2" cx="125.38" cy="109.8" r="20.81" xlink:href="#Безымянный_градиент_81"/></defs><title>sprite</title><g id="Слой_14" data-name="Слой 14"><circle class="cls-1" cx="50" cy="40" r="30"/><circle class="cls-2" cx="49.91" cy="39.83" r="27.03"/><circle class="cls-3" cx="49.91" cy="39.88" r="25.38"/><circle class="cls-4" cx="49.86" cy="39.49" r="20.81"/></g><g id="Слой_10" data-name="Слой 10"><path class="cls-5" d="M66.46,31.68a.87.87,0,0,0-1.05,0l-9,6.9L50.44,25.18a.91.91,0,0,0-1.6,0l-6,13.56-9-7.05a.87.87,0,0,0-1.35,1l6.23,16.09a.87.87,0,0,0,.81.56H59.71a.87.87,0,0,0,.81-.56l6.23-16.09A.87.87,0,0,0,66.46,31.68ZM59.12,47.6h-19L35.29,35l7.34,5.78A.88.88,0,0,0,44,40.47l5.66-12.79,5.58,12.62a.88.88,0,0,0,.58.49.87.87,0,0,0,.75-.15L64,35Zm1.38,4.08a.87.87,0,0,1-.87.87h-20a.87.87,0,0,1,0-1.75h20A.87.87,0,0,1,60.49,51.68Z"/></g><g id="Слой_13" data-name="Слой 13"><circle class="cls-6" cx="50" cy="110" r="30"/><circle class="cls-2" cx="49.91" cy="109.83" r="27.03"/><circle class="cls-7" cx="49.91" cy="109.88" r="25.38"/><circle class="cls-8" cx="49.86" cy="109.49" r="20.81"/><path class="cls-5" d="M66.88,101.94a.87.87,0,0,0-1.05,0l-9,6.9L50.85,95.44a.91.91,0,0,0-1.6,0l-6,13.56-9-7.05a.87.87,0,0,0-1.35,1L39.16,119a.87.87,0,0,0,.81.56H60.13a.87.87,0,0,0,.81-.56l6.23-16.09A.87.87,0,0,0,66.88,101.94Zm-7.35,15.91h-19l-4.86-12.56,7.34,5.78a.88.88,0,0,0,1.34-.33L50,97.94l5.58,12.62a.88.88,0,0,0,.58.49.87.87,0,0,0,.75-.15l7.46-5.7Zm1.38,4.08a.87.87,0,0,1-.87.87h-20a.87.87,0,0,1,0-1.75H60A.87.87,0,0,1,60.91,121.93Z"/></g><g id="Слой_6" data-name="Слой 6"><circle class="cls-9" cx="125" cy="40" r="30"/></g><g id="Слой_7" data-name="Слой 7"><circle class="cls-10" cx="125.26" cy="39.87" r="27.03"/></g><g id="Слой_8" data-name="Слой 8"><circle class="cls-11" cx="125.31" cy="39.8" r="25.38"/></g><g id="Слой_9" data-name="Слой 9"><circle class="cls-12" cx="125.38" cy="39.8" r="20.81"/></g><g id="Слой_12" data-name="Слой 12"><circle class="cls-13" cx="125" cy="110" r="30"/><circle class="cls-10" cx="125.26" cy="109.87" r="27.03"/><circle class="cls-14" cx="125.31" cy="109.8" r="25.38"/><circle class="cls-15" cx="125.38" cy="109.8" r="20.81"/><path class="cls-16" d="M142.23,101.86a.87.87,0,0,0-1.05,0l-9,6.9L126.2,95.36a.91.91,0,0,0-1.6,0l-6,13.56-9-7.05a.87.87,0,0,0-1.35,1L114.51,119a.87.87,0,0,0,.81.56h20.16a.87.87,0,0,0,.81-.56l6.23-16.09A.87.87,0,0,0,142.23,101.86Zm-7.35,15.91h-19l-4.86-12.56L118.4,111a.88.88,0,0,0,1.34-.33l5.66-12.79L131,110.49a.88.88,0,0,0,.58.49.87.87,0,0,0,.75-.15l7.46-5.7Zm1.38,4.08a.87.87,0,0,1-.87.87h-20a.87.87,0,0,1,0-1.75h20A.87.87,0,0,1,136.26,121.86Z"/></g><g id="Слой_16" data-name="Слой 16"><path class="cls-17" d="M253.22,52.33c17.51-5.13,36.05-4.82,55.45,0v9.23c-21.4-5.27-34.92-5.6-55.45,0V52.33ZM304.46,56a1.23,1.23,0,1,1-1.27,1.23A1.25,1.25,0,0,1,304.46,56Zm-45.11,0a1.23,1.23,0,1,1-1.27,1.23A1.25,1.25,0,0,1,259.35,56Zm9.63-3a1.92,1.92,0,1,1-2,1.92,1.95,1.95,0,0,1,2-1.92Zm25.85,0a1.92,1.92,0,1,1-2,1.92,1.95,1.95,0,0,1,2-1.92Zm-13.58-2a2.51,2.51,0,1,1-2.59,2.51A2.55,2.55,0,0,1,281.25,51Zm15.09-30.67c-4.05,1.9-7.6,3.85-10.42,3.8a4.08,4.08,0,0,0,0-.62,4.71,4.71,0,0,0-9.42,0,4.3,4.3,0,0,0,0,.6c-2.88.25-6.57-1.79-10.81-3.78-10.28-4.83-16,4.61-10.68,9.46a29.29,29.29,0,0,1,4.7,5.41c1.94,2.76,5-.6,2.13-3.33-5.12-4.79-2.06-11,4.14-7.85a24.27,24.27,0,0,0,12,2.85,5.11,5.11,0,0,0,.77.56v7.8c1.75-1.25,3.06-1.31,5,0V27.28a4.73,4.73,0,0,0,.62-.47A24.12,24.12,0,0,0,296,24c6.19-3.14,9.26,3.06,4.14,7.85-2.9,2.72.19,6.09,2.13,3.33A29.54,29.54,0,0,1,307,29.74c5.36-4.85-.4-14.29-10.68-9.46Zm27.83,10.94c-1-5.94-5.85-8.13-13.07-8.39.9,2,1.45,4-.42,6,10.22-.84,10.23,5.21,4.62,9.68-2.26,1.79-.11,4.61,1.59,2.86,3.53-3.65,7.78-7.16,7.28-10.17Zm-86.32,0c1-5.94,5.85-8.13,13.08-8.39-.9,2-1.45,4,.42,6-10.23-.84-10.24,5.21-4.62,9.68,2.26,1.79.11,4.61-1.59,2.86-3.53-3.65-7.78-7.16-7.28-10.17Zm73.62,14.51a1.92,1.92,0,0,1,.51.16,1.9,1.9,0,0,1-.84-1.9,2,2,0,0,1,2.28-1.57A1.93,1.93,0,0,1,315,44.63a2,2,0,0,1-2.28,1.57,2,2,0,0,1-.51-.16,1.89,1.89,0,0,1,.83,1.9,2,2,0,0,1-2.28,1.57,1.93,1.93,0,0,1-1.62-2.21,2,2,0,0,1,2.28-1.57Zm-60.6.22a1.91,1.91,0,0,0-.51.16,1.9,1.9,0,0,0,.84-1.9,2,2,0,0,0-2.28-1.57,1.92,1.92,0,0,0-1.62,2.21,2,2,0,0,0,2.27,1.57,2.14,2.14,0,0,0,.51-.15,1.89,1.89,0,0,0-.84,1.9,2,2,0,0,0,2.28,1.57,1.93,1.93,0,0,0,1.62-2.21,2,2,0,0,0-2.28-1.57Zm9.53-4.34a2.33,2.33,0,0,0-2,2.67,2.4,2.4,0,0,0,2.76,1.9,2.33,2.33,0,0,0,2-2.68,2.26,2.26,0,0,0-.26-.73,2.38,2.38,0,0,0,.6,0,2.41,2.41,0,0,0,.58-.17,2.17,2.17,0,0,0,0,.77,2.39,2.39,0,0,0,2.76,1.9,2.33,2.33,0,0,0,2-2.67,2.39,2.39,0,0,0-2.76-1.9,2.62,2.62,0,0,0-.57.17,2.27,2.27,0,0,0,0-.77,2.4,2.4,0,0,0-2.76-1.9,2.33,2.33,0,0,0-2,2.67,2.24,2.24,0,0,0,.26.73,2.65,2.65,0,0,0-.6,0Zm35.87-.92a2.61,2.61,0,0,1,.58.17,2.17,2.17,0,0,1,0-.77,2.39,2.39,0,0,1,2.76-1.9,2.33,2.33,0,0,1,2,2.67,2.21,2.21,0,0,1-.27.73,2.66,2.66,0,0,1,.6,0,2.33,2.33,0,0,1,2,2.67,2.39,2.39,0,0,1-2.76,1.9,2.3,2.3,0,0,1-1.7-3.41,2.44,2.44,0,0,1-1.17-.19,2.24,2.24,0,0,1,0,.77,2.39,2.39,0,0,1-2.76,1.9,2.33,2.33,0,0,1-2-2.67,2.39,2.39,0,0,1,2.76-1.9ZM284.59,39a2.8,2.8,0,1,1-2.89,2.8,2.11,2.11,0,0,1,0-.28,3.19,3.19,0,0,1-.47,0,3,3,0,0,1-.68-.08,2.75,2.75,0,0,1,0,.32A2.89,2.89,0,1,1,277.7,39a2.93,2.93,0,0,1,.68.08c0-.11,0-.21,0-.32a2.89,2.89,0,0,1,5.78,0c0,.09,0,.19,0,.28a3,3,0,0,1,.47,0Zm2.68-24.58A2.25,2.25,0,1,1,285,16.63a2.28,2.28,0,0,1,2.32-2.24Zm-13.17,0a2.24,2.24,0,1,1-2.31,2.24,2.29,2.29,0,0,1,2.31-2.24Zm7.14-4.33a2.8,2.8,0,1,1-2.89,2.8,2.85,2.85,0,0,1,2.89-2.8Z"/><text class="cls-18" transform="translate(175.15 113.09)">Checkers</text></g></svg>