<svg xmlns="http://www.w3.org/2000/svg" xmlns:xlink="http://www.w3.org/1999/xlink" width="700" height="700" viewBox="0 0 700 700"><defs><style>.cls-1,.cls-2,.cls-3,.cls-4,.cls-5,.cls-6,.cls-7{stroke:#000;stroke-miterlimit:10;}.cls-1{fill:url(#Безымянный_градиент_24);}.cls-3{fill:url(#Безымянный_градиент_27);}.cls-4{fill:url(#Безымянный_градиент_31);}.cls-5{fill:url(#Безымянный_градиент_24-2);}.cls-6{fill:url(#Безымянный_градиент_27-2);}.cls-7{fill:url(#Безымянный_градиент_31-2);}.cls-8{fill:#ededed;}.cls-9{fill:url(#Безымянный_градиент_99);}.cls-10{fill:#fff;}.cls-11{fill:url(#Безымянный_градиент_113);}.cls-12{fill:url(#Безымянный_градиент_81);}.cls-13{fill:url(#Безымянный_градиент_99-2);}.cls-14{fill:url(#Безымянный_градиент_113-2);}.cls-15{fill:url(#Безымянный_градиент_81-2);}.cls-16{fill:#3d3d3d;}</style><radialGradient id="Безымянный_градиент_24" cx="50" cy="40" r="30" gradientUnits="userSpaceOnUse"><stop offset="0.67" stop-color="#fff"/><stop offset="1"/></radialGradient><radialGradient id="Безымянный_градиент_27" cx="49.91" cy="39.88" r="25.38" gradientUnits="userSpaceOnUse"><stop offset="0.4" stop-color="#fff"/><stop offset="1"/></radialGradient><radialGradient id="Безымянный_градиент_31" cx="49.86" cy="39.49" r="20.81" gradientUnits="userSpaceOnUse"><stop offset="0.03" stop-color="#444"/><stop offset="1"/></radialGradient><radialGradient id="Безымянный_градиент_24-2" cy="110" r="30" xlink:href="#Безымянный_градиент_24"/><radialGradient id="Безымянный_градиент_27-2" cx="49.91" cy="109.88" r="25.38" xlink:href="#Безымянный_градиент_27"/><radialGradient id="Безымянный_градиент_31-2" cx="49.86" cy="109.49" r="20.81" xlink:href="#Безымянный_градиент_31"/><radialGradient id="Безымянный_градиент_99" cx="125" cy="40" r="30" gradientUnits="userSpaceOnUse"><stop offset="0.54" stop-color="#ccc"/><stop offset="0.66" stop-color="#ccc"/><stop offset="0.81" stop-color="#cecece"/><stop offset="0.86" stop-color="#d5d5d5"/><stop offset="0.9" stop-color="#e0e0e0"/><stop offset="0.93" stop-color="#f1f1f1"/><stop offset="0.95" stop-color="#fff"/><stop offset="0.97" stop-color="#fff"/></radialGradient><radialGradient id="Безымянный_градиент_113" cx="125.31" cy="39.8" r="25.38" gradientUnits="userSpaceOnUse"><stop offset="0.29" stop-color="gray"/><stop offset="1" stop-color="#fff"/></radialGradient><radialGradient id="Безымянный_градиент_81" cx="125.38" cy="39.8" r="20.81" gradientUnits="userSpaceOnUse"><stop offset="0.1" stop-color="#f6f6f6"/><stop offset="0.5" stop-color="#fff"/><stop offset="1" stop-color="#ccc"/></radialGradient><radialGradient id="Безымянный_градиент_99-2" cy="110" r="30" xlink:href="#Безымянный_градиент_99"/><radialGradient id="Безымянный_градиент_113-2" cx="125.31" cy="109.8" r="25.38" xlink:href="#Безымянный_градиент_113"/><radialGradient id="Безымянный_градиент_81-2" cx="125.38" cy="109.8" r="20.81" xlink:href="#Безымянный_градиент_81"/></defs><title>sprite</title><g id="Слой_14" data-name="Слой 14"><circle class="cls-1" cx="50" cy="40" r="30"/><circle class="cls-2" cx="49.91" cy="39.83" r="27.03"/><circle class="cls-3" cx="49.91" cy="39.88" r="25.38"/><circle class="cls-4" cx="49.86" cy="39.49" r="20.81"/></g><g id="Слой_13" data-name="Слой 13"><circle class="cls-5" cx="50" cy="110" r="30"/><circle class="cls-2" cx="49.91" cy="109.83" r="27.03"/><circle class="cls-6" cx="49.91" cy="109.88" r="25.38"/><circle class="cls-7" cx="49.86" cy="109.49" r="20.81"/><path class="cls-8" d="M66.88,101.94a.87.87,0,0,0-1.05,0l-9,6.9L50.85,95.44a.91.91,0,0,0-1.6,0l-6,13.56-9-7.05a.87.87,0,0,0-1.35,1L39.16,119a.87.87,0,0,0,.81.56H60.13a.87.87,0,0,0,.81-.56l6.23-16.09A.87.87,0,0,0,66.88,101.94Zm-7.35,15.91h-19l-4.86-12.56,7.34,5.78a.88.88,0,0,0,1.34-.33L50,97.94l5.58,12.62a.88.88,0,0,0,.58.49.87.87,0,0,0,.75-.15l7.46-5.7Zm1.38,4.08a.87.87,0,0,1-.87.87h-20a.87.87,0,0,1,0-1.75H60A.87.87,0,0,1,60.91,121.93Z"/></g><g id="Слой_6" data-name="Слой 6"><circle class="cls-9" cx="125" cy="40" r="30"/></g><g id="Слой_7" data-name="Слой 7"><circle class="cls-10" cx="125.26" cy="39.87" r="27.03"/></g><g id="Слой_8" data-name="Слой 8"><circle class="cls-11" cx="125.31" cy="39.8" r="25.38"/></g><g id="Слой_9" data-name="Слой 9"><circle class="cls-12" cx="125.38" cy="39.8" r="20.81"/></g><g id="Слой_12" data-name="Слой 12"><circle class="cls-13" cx="125" cy="110" r="30"/><circle class="cls-10" cx="125.26" cy="109.87" r="27.03"/><circle class="cls-14" cx="125.31" cy="109.8" r="25.38"/><circle class="cls-15" cx="125.38" cy="109.8" r="20.81"/><path class="cls-16" d="M142.23,101.86a.87.87,0,0,0-1.05,0l-9,6.9L126.2,95.36a.91.91,0,0,0-1.6,0l-6,13.56-9-7.05a.87.87,0,0,0-1.35,1L114.51,119a.87.87,0,0,0,.81.56h20.16a.87.87,0,0,0,.81-.56l6.23-16.09A.87.87,0,0,0,142.23,101.86Zm-7.35,15.91h-19l-4.86-12.56L118.4,111a.88.88,0,0,0,1.34-.33l5.66-12.79L131,110.49a.88.88,0,0,0,.58.49.87.87,0,0,0,.75-.15l7.46-5.7Zm1.38,4.08a.87.87,0,0,1-.87.87h-20a.87.87,0,0,1,0-1.75h20A.87.87,0,0,1,136.26,121.86Z"/></g></svg>